<?xml version="1.0" encoding="utf-8"?>
<!-- Generator: Adobe Illustrator 15.1.0, SVG Export Plug-In  -->
<!DOCTYPE svg PUBLIC "-//W3C//DTD SVG 1.1//EN" "http://www.w3.org/Graphics/SVG/1.1/DTD/svg11.dtd" [
	<!ENTITY ns_flows "http://ns.adobe.com/Flows/1.0/">
]>
<svg version="1.1"
	 xmlns="http://www.w3.org/2000/svg" xmlns:xlink="http://www.w3.org/1999/xlink" xmlns:a="http://ns.adobe.com/AdobeSVGViewerExtensions/3.0/"
	 x="0px" y="0px" width="444px" height="167px" viewBox="0 0 444 167" overflow="visible" enable-background="new 0 0 444 167"
	 xml:space="preserve">
<defs>
</defs>
<path fill="#FFFFFF" d="M258.123,119.707h-17.756v-5.79h-0.257c-3.859,5.02-10.55,7.85-17.111,7.85
	c-18.527,0-29.079-16.855-29.079-33.968c0-16.726,10.679-33.323,28.82-33.323c6.562,0,13.253,2.83,17.627,7.977v-5.918h17.756
	V119.707z M242.169,88.058c0-8.492-5.79-17.627-15.055-17.627c-9.263,0-14.925,9.135-14.925,17.627
	c0,8.49,5.662,17.755,14.925,17.755C236.379,105.812,242.169,96.548,242.169,88.058"/>
<path fill="#FFFFFF" d="M283.98,30.03c0,5.919-4.761,10.68-10.68,10.68c-5.918,0-10.678-4.761-10.678-10.68
	c0-5.789,4.76-10.679,10.678-10.679C279.219,19.351,283.98,24.241,283.98,30.03 M282.307,119.708h-18.013V56.535h18.013V119.708z"/>
<polygon fill="#FFFFFF" points="312.285,92.946 327.723,54.476 336.344,54.476 351.913,93.461 365.293,56.535 384.849,56.535 
	355.514,120.995 346.38,120.995 332.871,82.524 317.816,120.995 308.553,120.995 279.475,56.535 299.161,56.535 "/>
<path fill="#FFFFFF" d="M443.514,119.707h-17.756v-5.79H425.5c-3.858,5.02-10.549,7.85-17.111,7.85
	c-18.526,0-29.077-16.855-29.077-33.968c0-16.726,10.68-33.323,28.819-33.323c6.563,0,13.252,2.83,17.627,7.977v-5.918h17.756
	V119.707z M427.56,88.058c0-8.492-5.789-17.627-15.054-17.627c-9.263,0-14.925,9.135-14.925,17.627
	c0,8.49,5.662,17.755,14.925,17.755C421.771,105.812,427.56,96.548,427.56,88.058"/>
<path fill="#FFFFFF" d="M166.596,83.298C166.596,37.294,129.302,0,83.298,0S0,37.294,0,83.298s37.294,83.298,83.298,83.298
	S166.596,129.302,166.596,83.298"/>
<path fill="#47BDA1" d="M107.782,56.921c0-13.094-10.615,19.607-23.709,19.607c-11.219,0-19.677-36.874-23.073-25.053
	c-3.396,11.821-19.234,58.19-48.042,65.14c40.813,5.725,76.566-18.791,91.687-47.79l-0.055-0.028
	C106.616,65.305,107.782,61.25,107.782,56.921"/>
<path fill="#6E1951" d="M60.37,56.921c0-13.094,10.615,19.607,23.709,19.607c11.219,0,19.677-36.874,23.073-25.053
	c3.396,11.821,19.233,58.19,48.042,65.14c-40.814,5.725-76.567-18.791-91.687-47.79l0.055-0.028
	C61.536,65.305,60.37,61.25,60.37,56.921"/>
<path fill="#31182F" d="M107.781,56.921c0-1.897-0.229-3.739-0.65-5.508c-0.973-3.363-2.368-6.274-4.108-8.739
	c-4.035-5.357-10.289-8.944-17.396-9.405c-0.508-0.028-1.015-0.056-1.535-0.056h-0.017h-0.016c-0.52,0-1.028,0.028-1.536,0.056
	c-7.107,0.461-13.361,4.048-17.395,9.405c-1.741,2.465-3.136,5.376-4.109,8.739c-0.421,1.769-0.65,3.611-0.65,5.508
	c0,4.33,1.166,8.384,3.192,11.877l-0.055,0.027c4.879,9.358,11.917,18.24,20.569,25.799c8.653-7.559,15.69-16.441,20.569-25.799
	l-0.055-0.027C106.616,65.305,107.781,61.251,107.781,56.921 M84.075,68.586c-5.935,0-10.746-4.699-10.746-10.497
	c0-5.796,4.811-10.496,10.746-10.496s10.746,4.7,10.746,10.496C94.821,63.887,90.01,68.586,84.075,68.586"/>
</svg>
